<?xml version="1.0" standalone="no"?>
<!DOCTYPE svg PUBLIC "-//W3C//DTD SVG 20010904//EN"
 "http://www.w3.org/TR/2001/REC-SVG-20010904/DTD/svg10.dtd">
<svg version="1.0" xmlns="http://www.w3.org/2000/svg"
 width="519.000000pt" height="519.000000pt" viewBox="0 0 519.000000 519.000000"
 preserveAspectRatio="xMidYMid meet">
<metadata>
Created by potrace 1.11, written by Peter Selinger 2001-2013
</metadata>
<g transform="translate(0.000000,519.000000) scale(0.100000,-0.100000)"
fill="#000000" stroke="none">
<path d="M2505 4497 c-106 -36 -173 -92 -220 -187 -24 -48 -28 -66 -27 -147 0
-81 4 -100 27 -146 15 -28 43 -69 63 -89 l36 -38 -21 -28 c-11 -15 -31 -48
-43 -72 -12 -25 -69 -124 -125 -220 -56 -96 -112 -193 -124 -215 -12 -22 -26
-47 -31 -55 -13 -19 -123 -211 -184 -320 -101 -180 -108 -189 -179 -225 -34
-17 -67 -25 -101 -25 -59 0 -99 19 -306 145 -74 45 -179 108 -233 140 -54 32
-100 62 -103 66 -3 5 3 34 12 65 23 79 13 158 -27 234 -57 108 -137 167 -255
190 -105 21 -226 -21 -303 -105 -65 -70 -91 -138 -91 -236 0 -70 4 -90 30
-143 36 -73 52 -93 108 -134 57 -41 130 -64 202 -64 l58 0 32 -81 c18 -45 49
-129 70 -187 21 -58 48 -127 60 -155 20 -46 49 -126 87 -235 8 -25 21 -58 29
-75 7 -16 35 -91 62 -165 27 -74 63 -171 80 -215 17 -44 48 -127 70 -185 l39
-105 1398 0 1398 0 29 80 c16 44 41 112 57 150 16 39 40 102 54 140 15 39 42
111 61 160 19 50 53 142 76 205 23 63 56 151 72 195 17 44 41 107 53 140 12
33 39 105 60 160 20 55 43 116 50 135 13 35 14 35 78 37 89 3 166 34 231 94
78 71 101 128 101 249 0 81 -4 103 -26 150 -48 101 -136 167 -255 190 -51 10
-71 9 -125 -4 -114 -30 -190 -90 -240 -191 -21 -44 -24 -62 -22 -145 1 -52 3
-108 5 -124 3 -27 -5 -34 -141 -117 -78 -49 -145 -89 -147 -89 -2 0 -39 -22
-82 -48 -205 -129 -270 -146 -370 -96 -63 31 -94 67 -151 176 -24 46 -49 90
-56 98 -7 8 -27 44 -45 80 -18 36 -38 72 -45 80 -7 8 -29 47 -50 85 -21 39
-83 147 -138 240 -128 217 -207 362 -207 378 0 8 13 26 29 41 15 15 41 52 56
81 24 48 27 66 28 152 0 92 -2 102 -32 155 -39 69 -106 132 -169 159 -59 26
-173 34 -227 16z"/>
<path d="M1004 1206 l-34 -34 0 -150 c0 -83 4 -162 10 -176 5 -14 24 -35 42
-46 33 -20 51 -20 1574 -20 l1541 0 34 23 c53 35 59 57 59 210 0 157 -8 184
-64 211 -31 15 -170 16 -1581 16 l-1547 0 -34 -34z"/>
</g>
</svg>
