<?xml version="1.0" standalone="no"?>
<!DOCTYPE svg PUBLIC "-//W3C//DTD SVG 20010904//EN"
 "http://www.w3.org/TR/2001/REC-SVG-20010904/DTD/svg10.dtd">
<svg version="1.0" xmlns="http://www.w3.org/2000/svg"
 width="140.000000pt" height="140.000000pt" viewBox="0 0 140.000000 140.000000"
 preserveAspectRatio="xMidYMid meet">
<metadata>
Created by potrace 1.11, written by Peter Selinger 2001-2013
</metadata>
<g transform="translate(0.000000,140.000000) scale(0.100000,-0.100000)"
fill="#000000" stroke="none">
<path d="M31 1384 c-11 -13 -15 -14 -22 -2 -5 7 -9 -33 -9 -99 0 -84 3 -113
13 -113 7 0 8 -3 2 -8 -15 -11 -15 -42 1 -42 8 0 14 -7 14 -15 0 -18 -16 -20
-23 -2 -3 6 -6 -2 -6 -18 -1 -17 5 -37 11 -43 10 -10 10 -15 -1 -21 -9 -6 -2
-10 22 -13 l35 -4 -24 23 c-13 12 -24 27 -24 33 0 15 38 55 45 48 5 -5 44
-241 48 -290 1 -10 4 -18 8 -18 3 0 10 -28 13 -62 5 -43 10 -57 17 -47 14 22
11 62 -3 53 -10 -6 -10 -5 -1 8 7 8 10 18 6 21 -3 4 -1 7 5 7 6 0 13 -8 16
-17 3 -10 3 5 1 32 -16 169 -17 193 -7 210 5 10 17 19 25 21 12 2 13 -4 6 -29
-11 -39 -11 -39 0 -33 5 3 11 -5 13 -19 3 -13 2 -22 -3 -20 -4 3 -11 1 -14 -5
-4 -6 -1 -9 6 -8 7 2 14 -6 15 -17 1 -11 3 -29 4 -40 4 -38 1 -47 -17 -41 -9
4 -5 -4 11 -19 15 -14 30 -25 34 -25 4 1 16 15 28 33 11 18 27 32 35 31 13 -1
14 9 7 65 -16 141 -15 138 -55 139 -35 1 -75 22 -43 22 10 0 9 3 -3 13 -22 15
-46 83 -39 109 2 11 15 25 28 30 19 9 21 14 13 25 -9 10 -7 13 10 13 11 0 21
4 21 8 0 5 -19 7 -41 6 -35 -2 -42 1 -47 19 -7 26 -5 32 8 33 6 1 14 2 19 3 4
0 7 13 5 29 l-4 27 12 -27 c12 -28 50 -39 63 -18 3 6 1 10 -4 10 -6 0 -11 5
-11 11 0 5 6 7 13 4 6 -4 4 0 -5 8 -10 8 -18 19 -18 26 0 19 -192 14 -209 -5z
m31 -229 c3 -24 0 -35 -9 -35 -7 0 -10 7 -6 17 5 13 2 15 -13 10 -18 -7 -18
-6 -1 7 9 7 17 18 17 25 0 25 8 9 12 -24z m113 -114 c-3 -6 -13 -11 -21 -11
-8 0 -12 5 -9 10 4 6 11 8 16 5 5 -4 9 -1 9 6 0 7 3 10 6 6 3 -3 3 -10 -1 -16z
m99 -46 c-4 -8 -11 -12 -16 -9 -6 4 -5 10 3 15 19 12 19 11 13 -6z m6 -75 c0
-5 -4 -10 -10 -10 -5 0 -10 5 -10 10 0 6 5 10 10 10 6 0 10 -4 10 -10z m-126
-65 c3 -8 1 -15 -4 -15 -6 0 -10 7 -10 15 0 8 2 15 4 15 2 0 6 -7 10 -15z"/>
<path d="M324 1384 c3 -9 -3 -27 -14 -41 -11 -15 -17 -29 -14 -32 4 -3 9 0 11
7 6 17 36 15 77 -5 l35 -16 -24 -19 c-13 -10 -28 -18 -34 -18 -20 0 -60 -23
-55 -31 3 -5 14 -4 25 1 13 7 19 7 19 0 0 -5 -4 -10 -10 -10 -5 0 -14 -9 -20
-20 -10 -19 -9 -20 8 -9 17 11 30 8 86 -20 36 -18 66 -37 66 -43 0 -6 -12 -3
-26 7 -15 9 -23 12 -19 6 10 -17 -14 -41 -60 -62 -40 -18 -40 -19 -10 -19 49
0 77 -11 71 -27 -5 -12 4 -60 21 -122 4 -17 14 -9 17 15 9 58 55 -9 48 -69 -3
-25 0 -37 8 -37 8 0 10 9 6 28 -3 15 -3 21 0 15 13 -29 19 -9 16 51 -3 47 1
71 12 89 13 19 14 30 6 51 -13 36 -13 112 1 138 9 16 17 19 42 14 32 -6 32 -5
45 46 6 29 19 59 27 68 14 13 14 11 0 -22 -8 -21 -15 -53 -15 -72 0 -29 4 -35
28 -40 15 -4 50 -22 77 -41 30 -20 68 -36 95 -40 44 -6 91 -42 72 -54 -5 -3
-12 -16 -16 -28 -6 -18 -3 -23 10 -23 14 0 16 -7 11 -50 -7 -55 3 -58 28 -9 9
16 20 27 26 23 7 -4 3 -14 -8 -28 -32 -35 -55 -77 -47 -84 4 -4 9 -1 11 6 3 6
10 12 16 12 7 -1 2 -9 -10 -19 -13 -11 -23 -26 -23 -35 0 -9 -7 -16 -15 -16
-11 0 -12 -5 -5 -26 12 -31 16 -161 6 -191 -6 -17 -3 -23 8 -23 14 0 16 16 16
99 0 129 4 139 40 105 37 -36 40 -98 5 -134 -13 -14 -28 -38 -34 -53 -10 -26
-9 -27 14 -24 13 1 27 6 31 10 14 14 25 6 22 -15 -2 -15 -10 -23 -23 -24 -11
-1 -31 -4 -44 -9 -21 -6 -23 -5 -18 14 3 15 0 21 -10 21 -10 0 -14 -6 -10 -20
3 -11 1 -20 -5 -20 -5 0 -6 -5 -3 -10 3 -6 18 -7 32 -4 21 6 24 3 21 -12 -3
-15 -13 -19 -62 -19 -39 -1 -60 3 -63 12 -3 7 -9 10 -14 7 -5 -3 -9 6 -9 19 0
14 -7 27 -15 31 -8 3 -15 13 -15 23 0 15 2 16 10 3 7 -11 10 -11 10 -2 0 8 5
10 13 5 6 -4 27 -9 45 -10 27 -2 33 1 28 13 -3 9 -6 18 -6 20 0 2 -15 4 -32 4
-47 1 -141 24 -145 36 -2 6 22 21 52 33 31 13 54 25 52 28 -6 6 -126 -26 -155
-41 -21 -11 -22 -14 -7 -26 11 -9 19 -10 27 -2 16 16 106 -92 119 -144 15 -60
45 -84 113 -91 57 -6 79 -19 56 -33 -7 -4 -9 -16 -6 -27 7 -23 -2 -55 -14 -48
-5 3 -11 1 -15 -5 -3 -5 -22 -10 -42 -10 l-36 0 49 -44 c27 -25 45 -48 41 -52
-4 -4 -31 16 -59 44 -29 29 -69 63 -90 77 -20 13 -38 28 -40 33 -1 4 -36 34
-77 67 -73 59 -82 70 -264 339 -27 39 -51 73 -54 76 -3 3 -2 -19 2 -47 4 -35
3 -53 -4 -53 -17 0 -31 36 -31 78 0 26 -5 42 -15 46 -10 3 -15 -1 -15 -13 0
-10 -9 -30 -20 -44 -16 -20 -19 -34 -14 -74 4 -26 11 -53 16 -59 5 -7 -3 -23
-22 -44 -32 -34 -38 -58 -18 -78 9 -9 8 -12 -5 -12 -21 0 -27 56 -9 70 4 3 13
15 20 28 11 20 10 30 -4 67 -9 24 -14 51 -10 60 7 18 -9 55 -24 55 -5 0 -11
-26 -15 -57 -7 -62 -32 -150 -47 -170 -5 -7 -9 -22 -7 -35 4 -44 -13 -100 -32
-105 -11 -3 -19 -13 -19 -23 0 -9 -7 -31 -16 -49 -11 -22 -13 -41 -8 -64 4
-17 7 -35 6 -39 -3 -11 12 -10 24 2 18 18 45 0 38 -24 -4 -11 -11 -24 -17 -27
-5 -4 -7 -11 -3 -17 7 -12 -77 -72 -100 -72 -10 0 -14 -13 -14 -50 l0 -50 271
0 c156 0 268 4 265 9 -3 5 5 8 19 7 14 0 25 -4 25 -8 0 -4 126 -8 281 -8 248
0 280 2 269 15 -7 8 -8 15 -2 15 5 0 15 -7 22 -15 10 -12 38 -15 131 -15 l119
0 0 219 0 219 -42 14 c-43 14 -43 15 -44 64 l-2 49 7 -44 c3 -25 12 -46 19
-47 7 -1 8 0 2 3 -5 2 -7 9 -4 15 9 14 12 75 18 313 2 110 2 187 -1 171 -3
-22 -7 -26 -14 -15 -10 15 -13 -1 -9 -52 0 -15 -6 -43 -14 -64 -18 -42 -22
-100 -6 -90 8 5 9 -16 1 -67 0 -5 -4 -7 -8 -7 -21 3 -31 -3 -42 -27 -9 -20 -9
-30 1 -41 15 -19 21 -105 8 -135 -8 -22 -9 -22 -9 5 -1 39 -22 117 -31 117 -4
0 -10 -21 -13 -46 -4 -40 -12 -54 -60 -99 -30 -29 -71 -82 -92 -119 -20 -36
-38 -66 -39 -66 -1 0 1 26 5 57 7 62 37 136 51 127 5 -3 24 30 44 73 19 43 44
96 55 119 22 48 23 50 7 52 -70 6 -105 14 -116 26 -12 12 -11 16 9 29 13 8 45
18 72 22 26 3 47 10 47 16 0 5 5 8 11 6 7 -1 13 16 15 43 2 25 6 59 9 77 5 24
1 38 -17 58 -30 35 -38 66 -28 111 5 20 12 70 15 111 6 58 10 71 20 63 18 -15
34 -93 34 -165 0 -33 1 -118 1 -190 l1 -130 25 54 c20 43 23 59 15 82 -7 21
-5 36 9 64 27 52 40 65 66 65 27 0 32 21 9 40 -13 11 -13 14 0 27 22 21 20 90
-2 96 -17 4 -17 5 0 6 15 1 17 13 17 96 l0 95 -541 0 c-489 0 -541 -2 -535
-16z m221 -144 c10 -11 16 -20 13 -20 -3 0 -13 9 -23 20 -10 11 -16 20 -13 20
3 0 13 -9 23 -20z m-48 -42 c-3 -8 -6 -5 -6 6 -1 11 2 17 5 13 3 -3 4 -12 1
-19z m298 -38 c10 -11 16 -20 13 -20 -3 0 -13 9 -23 20 -10 11 -16 20 -13 20
3 0 13 -9 23 -20z m335 -57 c-18 -26 -44 -57 -58 -68 -24 -17 -24 -16 5 18 18
20 43 55 55 77 13 22 24 35 26 30 2 -5 -11 -31 -28 -57z m26 -49 c-4 -9 -9
-15 -11 -12 -3 3 -3 13 1 22 4 9 9 15 11 12 3 -3 3 -13 -1 -22z m-186 -20
c-18 -21 -24 -10 -9 18 8 14 14 18 17 10 2 -7 -2 -19 -8 -28z m-460 -24 c8 -5
12 -11 9 -14 -3 -3 -14 1 -25 9 -21 16 -8 20 16 5z m713 -89 c6 -23 -12 -32
-43 -24 l-23 6 24 18 c30 23 36 23 42 0z m-163 -45 c0 -2 -8 -10 -17 -17 -16
-13 -17 -12 -4 4 13 16 21 21 21 13z m86 -17 c7 -13 -19 -43 -34 -38 -12 5 3
49 17 49 5 0 13 -5 17 -11z m-63 -26 c-3 -7 -9 -13 -14 -13 -5 0 -9 6 -9 13 0
8 6 14 14 14 8 0 12 -6 9 -14z m-774 -90 c10 -10 36 -45 57 -78 22 -33 57 -83
79 -112 77 -101 107 -145 92 -137 -9 5 -59 67 -112 139 -53 72 -108 141 -121
156 -36 38 -32 67 5 32z m746 -103 c-3 -5 -1 -10 6 -10 7 0 10 -3 6 -6 -9 -9
-28 6 -22 17 4 5 8 9 11 9 3 0 2 -4 -1 -10z m75 -34 c0 -2 -8 -10 -17 -17 -16
-13 -17 -12 -4 4 13 16 21 21 21 13z m-820 -26 c0 -5 -4 -10 -10 -10 -5 0 -10
5 -10 10 0 6 5 10 10 10 6 0 10 -4 10 -10z m-107 -22 c-4 -7 -10 -38 -13 -68
-6 -54 -6 -55 -20 -27 -11 23 -11 31 0 55 16 32 31 52 37 52 2 0 1 -6 -4 -12z
m794 -70 c-3 -8 -6 -5 -6 6 -1 11 2 17 5 13 3 -3 4 -12 1 -19z m-712 -8 c3 -5
1 -10 -4 -10 -6 0 -11 5 -11 10 0 6 2 10 4 10 3 0 8 -4 11 -10z m146 -108 c11
-15 33 -35 47 -44 15 -10 21 -18 14 -18 -11 0 -97 64 -122 90 -3 3 -17 13 -32
23 -16 10 -28 22 -28 27 0 15 97 -48 121 -78z m-275 -37 c-7 -20 3 -45 20 -45
8 0 11 -6 8 -14 -5 -13 -2 -13 20 -3 14 7 26 20 26 30 0 15 2 16 14 5 17 -15
12 -26 -17 -39 -12 -5 -31 -16 -43 -24 -19 -14 -23 -13 -47 11 -23 22 -28 24
-33 10 -8 -21 -24 -11 -24 15 0 13 4 18 12 13 7 -4 8 -3 4 5 -8 13 10 41 26
41 5 0 7 -9 3 -19 -3 -11 -2 -22 3 -25 5 -3 12 8 16 24 3 17 8 30 12 30 3 0 4
-7 0 -15z m161 -31 c-3 -3 -12 -4 -19 -1 -8 3 -5 6 6 6 11 1 17 -2 13 -5z
m-155 -109 c4 -17 1 -25 -8 -25 -14 0 -19 31 -7 43 9 10 10 9 15 -18z m135 19
c-3 -3 -12 -4 -19 -1 -8 3 -5 6 6 6 11 1 17 -2 13 -5z m743 -66 c0 -17 -5 -23
-17 -20 -7 1 -16 -15 -21 -40 l-10 -43 -1 43 c-1 23 4 42 9 42 19 0 10 32 -10
37 -20 5 -25 15 -14 26 7 7 64 -33 64 -45z m44 -54 c3 -8 2 -12 -4 -9 -6 3
-10 10 -10 16 0 14 7 11 14 -7z m-569 -34 c3 -5 -1 -10 -10 -10 -9 0 -13 5
-10 10 3 6 8 10 10 10 2 0 7 -4 10 -10z"/>
<path d="M661 1152 c-1 -30 14 -58 55 -105 45 -49 43 -32 -2 25 -19 26 -39 59
-44 75 -7 25 -8 26 -9 5z"/>
<path d="M37 1052 c1 -8 3 -16 3 -18 0 -3 4 -2 10 1 6 3 10 11 10 16 0 6 -4 8
-9 5 -5 -4 -11 -3 -14 1 -2 5 -2 2 0 -5z"/>
<path d="M323 985 c4 -27 9 -78 13 -112 4 -35 10 -61 14 -58 4 2 4 26 0 52 -4
26 -11 73 -14 102 -4 30 -9 57 -13 60 -3 4 -3 -16 0 -44z"/>
<path d="M15 978 c-12 -53 -11 -100 1 -124 8 -14 14 -33 14 -40 0 -8 5 -14 11
-14 6 0 8 9 4 23 -12 41 -14 52 -20 100 -3 30 -1 47 6 47 5 0 7 -6 3 -12 -4
-7 2 -4 13 7 18 18 18 21 4 27 -26 11 -30 9 -36 -14z"/>
<path d="M176 985 c-9 -26 -7 -32 5 -12 6 10 9 21 6 23 -2 3 -7 -2 -11 -11z"/>
<path d="M886 945 c6 -41 11 -52 19 -44 2 3 -3 23 -11 44 l-15 40 7 -40z"/>
<path d="M645 946 c-10 -14 -23 -26 -31 -26 -7 0 -16 -4 -19 -10 -4 -6 6 -7
25 -4 16 4 30 2 30 -3 0 -5 16 -17 36 -26 19 -10 33 -21 29 -26 -3 -5 -1 -12
5 -16 6 -4 8 -11 5 -16 -9 -13 19 -11 33 3 9 9 12 9 12 0 0 -6 -9 -16 -21 -22
-16 -9 -26 -8 -45 5 -28 18 -30 30 -6 40 16 7 15 8 -3 15 -11 5 -33 9 -49 9
-21 1 -27 -3 -22 -14 3 -8 1 -15 -4 -15 -15 0 62 -70 79 -72 9 -1 36 -2 61 -3
25 -1 55 -4 68 -8 12 -3 20 -2 17 3 -3 5 -1 11 5 15 20 13 9 34 -23 44 -19 7
-47 25 -62 41 -16 17 -37 30 -47 30 -13 0 -25 14 -37 41 l-19 41 -17 -26z"/>
<path d="M435 820 c4 -6 11 -8 16 -5 14 9 11 15 -7 15 -8 0 -12 -5 -9 -10z"/>
<path d="M42 765 c0 -16 2 -22 5 -12 2 9 2 23 0 30 -3 6 -5 -1 -5 -18z"/>
<path d="M979 738 c-7 -17 -7 -108 0 -108 21 0 29 75 9 83 -10 4 -10 6 0 6 14
1 17 21 2 21 -5 0 -10 -1 -11 -2z"/>
<path d="M52 683 l5 -52 -29 6 -28 6 0 -88 0 -88 33 25 c46 35 106 155 98 199
-4 27 -6 29 -9 11 -3 -21 -38 -49 -48 -39 -3 2 -7 17 -10 33 -9 49 -16 41 -12
-13z m63 -32 c-3 -6 -14 -11 -23 -11 -15 1 -15 2 2 15 21 16 32 13 21 -4z"/>
<path d="M468 702 c18 -18 39 -32 45 -32 8 0 7 -3 -2 -9 -11 -7 -11 -9 0 -14
12 -4 11 -7 -1 -16 -11 -8 -2 -11 38 -11 28 0 52 2 52 5 0 3 -7 22 -15 42 -12
28 -18 34 -27 25 -7 -7 -17 -12 -22 -12 -6 0 -4 5 4 10 12 8 11 10 -7 10 -16
0 -21 4 -17 15 7 16 -1 18 -31 6 -12 -5 -26 -4 -35 2 -8 6 0 -4 18 -21z"/>
<path d="M547 603 c-16 -3 -27 -7 -25 -11 16 -35 65 -101 72 -99 5 2 11 29 13
60 4 62 6 60 -60 50z"/>
<path d="M1156 575 c-9 -26 -7 -32 5 -12 6 10 9 21 6 23 -2 3 -7 -2 -11 -11z"/>
<path d="M1175 558 c-10 -24 -10 -35 -2 -40 15 -9 16 -8 21 35 6 46 -1 47 -19
5z"/>
<path d="M870 515 c0 -8 4 -15 10 -15 5 0 7 7 4 15 -4 8 -8 15 -10 15 -2 0 -4
-7 -4 -15z"/>
<path d="M624 484 c5 -12 2 -15 -10 -10 -25 10 22 -45 58 -67 46 -28 58 -6 14
28 -19 15 -38 35 -41 46 -4 10 -11 19 -17 19 -5 0 -7 -7 -4 -16z"/>
<path d="M735 360 c3 -5 20 -19 38 -32 l32 -23 -25 32 c-22 28 -60 48 -45 23z"/>
<path d="M0 266 c0 -3 7 -12 16 -20 23 -23 40 -19 19 4 -16 18 -35 26 -35 16z"/>
<path d="M60 171 c-8 -6 -18 -7 -22 -5 -4 3 -8 0 -8 -5 0 -6 -6 -10 -12 -8 -7
1 -14 -8 -16 -20 -4 -29 20 -31 47 -4 11 11 23 16 27 13 4 -4 5 0 1 9 -4 13
-1 16 15 11 14 -3 19 -1 14 6 -9 14 -26 15 -46 3z"/>
</g>
</svg>
