<?xml version="1.0" standalone="no"?>
<!DOCTYPE svg PUBLIC "-//W3C//DTD SVG 20010904//EN"
 "http://www.w3.org/TR/2001/REC-SVG-20010904/DTD/svg10.dtd">
<svg version="1.0" xmlns="http://www.w3.org/2000/svg"
 width="192.000000pt" height="192.000000pt" viewBox="0 0 192.000000 192.000000"
 preserveAspectRatio="xMidYMid meet">
<metadata>
Created by potrace 1.11, written by Peter Selinger 2001-2013
</metadata>
<g transform="translate(0.000000,192.000000) scale(0.100000,-0.100000)"
fill="#000000" stroke="none">
<path d="M901 1652 c-38 -21 -71 -73 -71 -113 0 -14 11 -43 25 -63 l25 -37
-110 -192 c-113 -197 -144 -237 -183 -237 -13 0 -63 23 -112 51 -134 77 -129
72 -126 123 5 84 -45 136 -130 136 -35 0 -48 -6 -80 -39 -33 -33 -39 -45 -39
-81 0 -73 52 -130 118 -130 29 0 30 0 127 -260 l98 -260 517 0 518 0 50 133
c27 72 71 189 97 260 l48 127 35 0 c27 0 43 9 73 39 33 33 39 45 39 81 0 76
-52 130 -125 130 -78 0 -131 -60 -123 -140 l4 -41 -100 -61 c-119 -72 -152
-80 -189 -47 -15 13 -76 110 -137 216 l-110 192 25 37 c14 20 25 49 25 63 0
63 -68 131 -130 131 -14 0 -41 -8 -59 -18z"/>
<path d="M372 448 c-7 -7 -12 -39 -12 -73 0 -34 5 -66 12 -73 17 -17 1159 -17
1176 0 7 7 12 39 12 73 0 34 -5 66 -12 73 -17 17 -1159 17 -1176 0z"/>
</g>
</svg>
