<?xml version="1.0" standalone="no"?>
<!DOCTYPE svg PUBLIC "-//W3C//DTD SVG 20010904//EN"
 "http://www.w3.org/TR/2001/REC-SVG-20010904/DTD/svg10.dtd">
<svg version="1.0" xmlns="http://www.w3.org/2000/svg"
 width="576.000000pt" height="576.000000pt" viewBox="0 0 576.000000 576.000000"
 preserveAspectRatio="xMidYMid meet">
<metadata>
Created by potrace 1.11, written by Peter Selinger 2001-2013
</metadata>
<g transform="translate(0.000000,576.000000) scale(0.100000,-0.100000)"
fill="#000000" stroke="none">
<path d="M2915 5055 c-5 -2 -23 -6 -39 -10 -17 -3 -64 -40 -115 -89 -97 -94
-131 -115 -200 -123 -65 -7 -143 17 -266 83 -56 29 -129 61 -164 69 -182 47
-319 -67 -409 -340 -61 -184 -252 -802 -263 -851 -15 -66 4 -131 65 -224 185
-281 618 -599 1071 -788 365 -152 747 -231 1125 -234 219 -1 317 11 462 58
250 81 378 238 378 464 0 43 -29 209 -84 481 -157 770 -156 768 -231 866 -74
100 -217 195 -502 337 -355 177 -753 321 -828 301z"/>
<path d="M1225 3514 c-374 -43 -578 -113 -721 -247 -79 -73 -119 -136 -152
-235 -21 -66 -25 -95 -25 -202 0 -141 23 -237 88 -374 260 -549 1083 -1144
2055 -1486 1044 -367 2063 -359 2569 21 220 165 352 386 391 658 17 112 8 285
-20 381 -92 321 -355 620 -721 819 l-75 41 22 -133 c27 -155 29 -198 9 -289
-36 -170 -153 -314 -331 -405 -214 -110 -474 -154 -792 -134 -617 39 -1198
250 -1681 608 -116 87 -318 294 -385 396 -112 169 -149 300 -128 454 6 49 14
98 18 111 6 21 4 22 -42 21 -27 -1 -62 -4 -79 -5z"/>
</g>
</svg>
